<svg width="1024" height="753" viewBox="0 0 1024 753" fill="none" xmlns="http://www.w3.org/2000/svg">
<g opacity="0.2" filter="url(#filter0_f_175_198)">
<ellipse cx="512.5" cy="45" rx="670.5" ry="350" fill="#338AF3"/>
</g>
<path d="M33.0349 281C34.5302 281 35.6622 281.63 36.4308 282.891C37.2134 284.138 37.6047 285.953 37.6047 288.336C37.6047 290.719 37.2134 292.541 36.4308 293.802C35.6622 295.063 34.5302 295.693 33.0349 295.693C31.5536 295.693 30.4216 295.063 29.639 293.802C28.8564 292.541 28.4651 290.719 28.4651 288.336C28.4651 285.967 28.8564 284.152 29.639 282.891C30.4216 281.63 31.5536 281 33.0349 281ZM29.9534 288.336C29.9534 290.026 30.1072 291.35 30.4146 292.306L35.0683 283.099C34.5791 282.448 33.9013 282.122 33.0349 282.122C32.0706 282.122 31.316 282.635 30.771 283.66C30.2259 284.672 29.9534 286.23 29.9534 288.336ZM33.0349 294.55C34.0131 294.55 34.7748 294.044 35.3198 293.033C35.8648 292.008 36.1373 290.442 36.1373 288.336C36.1373 286.549 35.9627 285.163 35.6133 284.18L30.9596 293.469C31.4627 294.19 32.1545 294.55 33.0349 294.55Z" fill="url(#paint0_linear_175_198)" fill-opacity="0.6"/>
<path d="M34.2926 318.135H37.3741V319.236H29.3874V318.135H32.9511V306.455L29.5551 308.471L28.9682 307.536L33.1607 304.959H34.2926V318.135Z" fill="url(#paint1_linear_175_198)" fill-opacity="0.6"/>
<path d="M33.0349 328.502C34.5302 328.502 35.6622 329.133 36.4308 330.393C37.2134 331.64 37.6047 333.455 37.6047 335.838C37.6047 338.221 37.2134 340.043 36.4308 341.304C35.6622 342.565 34.5302 343.195 33.0349 343.195C31.5536 343.195 30.4216 342.565 29.639 341.304C28.8564 340.043 28.4651 338.221 28.4651 335.838C28.4651 333.469 28.8564 331.654 29.639 330.393C30.4216 329.133 31.5536 328.502 33.0349 328.502ZM29.9534 335.838C29.9534 337.529 30.1072 338.852 30.4146 339.808L35.0683 330.601C34.5791 329.95 33.9013 329.624 33.0349 329.624C32.0706 329.624 31.316 330.137 30.771 331.162C30.2259 332.174 29.9534 333.732 29.9534 335.838ZM33.0349 342.052C34.0131 342.052 34.7748 341.546 35.3198 340.535C35.8648 339.51 36.1373 337.944 36.1373 335.838C36.1373 334.051 35.9627 332.665 35.6133 331.682L30.9596 340.971C31.4627 341.692 32.1545 342.052 33.0349 342.052Z" fill="url(#paint2_linear_175_198)" fill-opacity="0.6"/>
<path d="M34.2926 365.637H37.3741V366.738H29.3874V365.637H32.9511V353.957L29.5551 355.973L28.9682 355.038L33.1607 352.461H34.2926V365.637Z" fill="url(#paint3_linear_175_198)" fill-opacity="0.6"/>
<path d="M34.2926 389.388H37.3741V390.489H29.3874V389.388H32.9511V377.708L29.5551 379.724L28.9682 378.789L33.1607 376.212H34.2926V389.388Z" fill="url(#paint4_linear_175_198)" fill-opacity="0.6"/>
<path d="M33.0349 399.755C34.5302 399.755 35.6622 400.386 36.4308 401.646C37.2134 402.893 37.6047 404.708 37.6047 407.091C37.6047 409.474 37.2134 411.296 36.4308 412.557C35.6622 413.818 34.5302 414.448 33.0349 414.448C31.5536 414.448 30.4216 413.818 29.639 412.557C28.8564 411.296 28.4651 409.474 28.4651 407.091C28.4651 404.722 28.8564 402.907 29.639 401.646C30.4216 400.386 31.5536 399.755 33.0349 399.755ZM29.9534 407.091C29.9534 408.782 30.1072 410.105 30.4146 411.061L35.0683 401.854C34.5791 401.203 33.9013 400.878 33.0349 400.878C32.0706 400.878 31.316 401.39 30.771 402.415C30.2259 403.427 29.9534 404.985 29.9534 407.091ZM33.0349 413.305C34.0131 413.305 34.7748 412.8 35.3198 411.788C35.8648 410.763 36.1373 409.197 36.1373 407.091C36.1373 405.304 35.9627 403.919 35.6133 402.935L30.9596 412.225C31.4627 412.945 32.1545 413.305 33.0349 413.305Z" fill="url(#paint5_linear_175_198)" fill-opacity="0.6"/>
<path d="M34.2926 436.89H37.3741V437.992H29.3874V436.89H32.9511V425.21L29.5551 427.226L28.9682 426.291L33.1607 423.714H34.2926V436.89Z" fill="url(#paint6_linear_175_198)" fill-opacity="0.6"/>
<path d="M33.0349 447.257C34.5302 447.257 35.6622 447.888 36.4308 449.149C37.2134 450.396 37.6047 452.211 37.6047 454.594C37.6047 456.977 37.2134 458.798 36.4308 460.059C35.6622 461.32 34.5302 461.95 33.0349 461.95C31.5536 461.95 30.4216 461.32 29.639 460.059C28.8564 458.798 28.4651 456.977 28.4651 454.594C28.4651 452.224 28.8564 450.409 29.639 449.149C30.4216 447.888 31.5536 447.257 33.0349 447.257ZM29.9534 454.594C29.9534 456.284 30.1072 457.607 30.4146 458.563L35.0683 449.356C34.5791 448.705 33.9013 448.38 33.0349 448.38C32.0706 448.38 31.316 448.892 30.771 449.918C30.2259 450.929 29.9534 452.488 29.9534 454.594ZM33.0349 460.807C34.0131 460.807 34.7748 460.302 35.3198 459.29C35.8648 458.265 36.1373 456.699 36.1373 454.594C36.1373 452.806 35.9627 451.421 35.6133 450.437L30.9596 459.727C31.4627 460.447 32.1545 460.807 33.0349 460.807Z" fill="url(#paint7_linear_175_198)" fill-opacity="0.6"/>
<path d="M33.0349 471.008C34.5302 471.008 35.6622 471.639 36.4308 472.9C37.2134 474.147 37.6047 475.962 37.6047 478.345C37.6047 480.728 37.2134 482.549 36.4308 483.81C35.6622 485.071 34.5302 485.701 33.0349 485.701C31.5536 485.701 30.4216 485.071 29.639 483.81C28.8564 482.549 28.4651 480.728 28.4651 478.345C28.4651 475.975 28.8564 474.16 29.639 472.9C30.4216 471.639 31.5536 471.008 33.0349 471.008ZM29.9534 478.345C29.9534 480.035 30.1072 481.358 30.4146 482.314L35.0683 473.107C34.5791 472.456 33.9013 472.131 33.0349 472.131C32.0706 472.131 31.316 472.643 30.771 473.669C30.2259 474.68 29.9534 476.239 29.9534 478.345ZM33.0349 484.558C34.0131 484.558 34.7748 484.053 35.3198 483.041C35.8648 482.016 36.1373 480.451 36.1373 478.345C36.1373 476.557 35.9627 475.172 35.6133 474.188L30.9596 483.478C31.4627 484.198 32.1545 484.558 33.0349 484.558Z" fill="url(#paint8_linear_175_198)" fill-opacity="0.6"/>
<path d="M34.2926 508.143H37.3741V509.245H29.3874V508.143H32.9511V496.464L29.5551 498.48L28.9682 497.544L33.1607 494.967H34.2926V508.143Z" fill="url(#paint9_linear_175_198)" fill-opacity="0.6"/>
<path d="M33.0349 518.511C34.5302 518.511 35.6622 519.141 36.4308 520.402C37.2134 521.649 37.6047 523.464 37.6047 525.847C37.6047 528.23 37.2134 530.052 36.4308 531.312C35.6622 532.573 34.5302 533.204 33.0349 533.204C31.5536 533.204 30.4216 532.573 29.639 531.312C28.8564 530.052 28.4651 528.23 28.4651 525.847C28.4651 523.478 28.8564 521.663 29.639 520.402C30.4216 519.141 31.5536 518.511 33.0349 518.511ZM29.9534 525.847C29.9534 527.537 30.1072 528.86 30.4146 529.816L35.0683 520.61C34.5791 519.958 33.9013 519.633 33.0349 519.633C32.0706 519.633 31.316 520.145 30.771 521.171C30.2259 522.182 29.9534 523.741 29.9534 525.847ZM33.0349 532.061C34.0131 532.061 34.7748 531.555 35.3198 530.543C35.8648 529.518 36.1373 527.953 36.1373 525.847C36.1373 524.059 35.9627 522.674 35.6133 521.69L30.9596 530.98C31.4627 531.7 32.1545 532.061 33.0349 532.061Z" fill="url(#paint10_linear_175_198)" fill-opacity="0.6"/>
<path d="M34.2926 555.645H37.3741V556.747H29.3874V555.645H32.9511V543.966L29.5551 545.982L28.9682 545.046L33.1607 542.469H34.2926V555.645Z" fill="url(#paint11_linear_175_198)" fill-opacity="0.6"/>
<path d="M34.2926 579.396H37.3741V580.498H29.3874V579.396H32.9511V567.717L29.5551 569.733L28.9682 568.798L33.1607 566.221H34.2926V579.396Z" fill="url(#paint12_linear_175_198)" fill-opacity="0.6"/>
<path d="M71.9651 328.502C73.4604 328.502 74.5924 329.133 75.361 330.393C76.1436 331.64 76.5349 333.455 76.5349 335.838C76.5349 338.221 76.1436 340.043 75.361 341.304C74.5924 342.565 73.4604 343.195 71.9651 343.195C70.4838 343.195 69.3518 342.565 68.5692 341.304C67.7866 340.043 67.3953 338.221 67.3953 335.838C67.3953 333.469 67.7866 331.654 68.5692 330.393C69.3518 329.133 70.4838 328.502 71.9651 328.502ZM68.8836 335.838C68.8836 337.529 69.0374 338.852 69.3448 339.808L73.9985 330.601C73.5093 329.95 72.8315 329.624 71.9651 329.624C71.0008 329.624 70.2462 330.137 69.7012 331.162C69.1561 332.174 68.8836 333.732 68.8836 335.838ZM71.9651 342.052C72.9433 342.052 73.705 341.546 74.25 340.535C74.795 339.51 75.0675 337.944 75.0675 335.838C75.0675 334.051 74.8928 332.665 74.5435 331.682L69.8898 340.971C70.3929 341.692 71.0847 342.052 71.9651 342.052Z" fill="url(#paint13_linear_175_198)" fill-opacity="0.6"/>
<path d="M73.2228 365.637H76.3043V366.738H68.3176V365.637H71.8812V353.957L68.4853 355.973L67.8984 355.038L72.0909 352.461H73.2228V365.637Z" fill="url(#paint14_linear_175_198)" fill-opacity="0.6"/>
<path d="M71.9651 376.004C73.4604 376.004 74.5924 376.635 75.361 377.895C76.1436 379.142 76.5349 380.957 76.5349 383.34C76.5349 385.723 76.1436 387.545 75.361 388.806C74.5924 390.067 73.4604 390.697 71.9651 390.697C70.4838 390.697 69.3518 390.067 68.5692 388.806C67.7866 387.545 67.3953 385.723 67.3953 383.34C67.3953 380.971 67.7866 379.156 68.5692 377.895C69.3518 376.635 70.4838 376.004 71.9651 376.004ZM68.8836 383.34C68.8836 385.031 69.0374 386.354 69.3448 387.31L73.9985 378.103C73.5093 377.452 72.8315 377.126 71.9651 377.126C71.0008 377.126 70.2462 377.639 69.7012 378.664C69.1561 379.676 68.8836 381.234 68.8836 383.34ZM71.9651 389.554C72.9433 389.554 73.705 389.049 74.25 388.037C74.795 387.012 75.0675 385.446 75.0675 383.34C75.0675 381.553 74.8928 380.168 74.5435 379.184L69.8898 388.474C70.3929 389.194 71.0847 389.554 71.9651 389.554Z" fill="url(#paint15_linear_175_198)" fill-opacity="0.6"/>
<path d="M71.9651 399.755C73.4604 399.755 74.5924 400.386 75.361 401.646C76.1436 402.893 76.5349 404.708 76.5349 407.091C76.5349 409.474 76.1436 411.296 75.361 412.557C74.5924 413.818 73.4604 414.448 71.9651 414.448C70.4838 414.448 69.3518 413.818 68.5692 412.557C67.7866 411.296 67.3953 409.474 67.3953 407.091C67.3953 404.722 67.7866 402.907 68.5692 401.646C69.3518 400.386 70.4838 399.755 71.9651 399.755ZM68.8836 407.091C68.8836 408.782 69.0374 410.105 69.3448 411.061L73.9985 401.854C73.5093 401.203 72.8315 400.878 71.9651 400.878C71.0008 400.878 70.2462 401.39 69.7012 402.415C69.1561 403.427 68.8836 404.985 68.8836 407.091ZM71.9651 413.305C72.9433 413.305 73.705 412.8 74.25 411.788C74.795 410.763 75.0675 409.197 75.0675 407.091C75.0675 405.304 74.8928 403.919 74.5435 402.935L69.8898 412.225C70.3929 412.945 71.0847 413.305 71.9651 413.305Z" fill="url(#paint16_linear_175_198)" fill-opacity="0.6"/>
<path d="M73.2228 436.89H76.3043V437.992H68.3176V436.89H71.8812V425.21L68.4853 427.226L67.8984 426.291L72.0909 423.714H73.2228V436.89Z" fill="url(#paint17_linear_175_198)" fill-opacity="0.6"/>
<path d="M71.9651 447.257C73.4604 447.257 74.5924 447.888 75.361 449.149C76.1436 450.396 76.5349 452.211 76.5349 454.594C76.5349 456.977 76.1436 458.798 75.361 460.059C74.5924 461.32 73.4604 461.95 71.9651 461.95C70.4838 461.95 69.3518 461.32 68.5692 460.059C67.7866 458.798 67.3953 456.977 67.3953 454.594C67.3953 452.224 67.7866 450.409 68.5692 449.149C69.3518 447.888 70.4838 447.257 71.9651 447.257ZM68.8836 454.594C68.8836 456.284 69.0374 457.607 69.3448 458.563L73.9985 449.356C73.5093 448.705 72.8315 448.38 71.9651 448.38C71.0008 448.38 70.2462 448.892 69.7012 449.918C69.1561 450.929 68.8836 452.488 68.8836 454.594ZM71.9651 460.807C72.9433 460.807 73.705 460.302 74.25 459.29C74.795 458.265 75.0675 456.699 75.0675 454.594C75.0675 452.806 74.8928 451.421 74.5435 450.437L69.8898 459.727C70.3929 460.447 71.0847 460.807 71.9651 460.807Z" fill="url(#paint18_linear_175_198)" fill-opacity="0.6"/>
<path d="M73.2228 484.392H76.3043V485.494H68.3176V484.392H71.8812V472.713L68.4853 474.728L67.8984 473.793L72.0909 471.216H73.2228V484.392Z" fill="url(#paint19_linear_175_198)" fill-opacity="0.6"/>
<path d="M71.9651 494.76C73.4604 494.76 74.5924 495.39 75.361 496.651C76.1436 497.898 76.5349 499.713 76.5349 502.096C76.5349 504.479 76.1436 506.301 75.361 507.561C74.5924 508.822 73.4604 509.453 71.9651 509.453C70.4838 509.453 69.3518 508.822 68.5692 507.561C67.7866 506.301 67.3953 504.479 67.3953 502.096C67.3953 499.726 67.7866 497.911 68.5692 496.651C69.3518 495.39 70.4838 494.76 71.9651 494.76ZM68.8836 502.096C68.8836 503.786 69.0374 505.109 69.3448 506.065L73.9985 496.859C73.5093 496.207 72.8315 495.882 71.9651 495.882C71.0008 495.882 70.2462 496.394 69.7012 497.42C69.1561 498.431 68.8836 499.99 68.8836 502.096ZM71.9651 508.31C72.9433 508.31 73.705 507.804 74.25 506.792C74.795 505.767 75.0675 504.202 75.0675 502.096C75.0675 500.308 74.8928 498.923 74.5435 497.939L69.8898 507.229C70.3929 507.949 71.0847 508.31 71.9651 508.31Z" fill="url(#paint20_linear_175_198)" fill-opacity="0.6"/>
<path d="M71.9651 518.511C73.4604 518.511 74.5924 519.141 75.361 520.402C76.1436 521.649 76.5349 523.464 76.5349 525.847C76.5349 528.23 76.1436 530.052 75.361 531.312C74.5924 532.573 73.4604 533.204 71.9651 533.204C70.4838 533.204 69.3518 532.573 68.5692 531.312C67.7866 530.052 67.3953 528.23 67.3953 525.847C67.3953 523.478 67.7866 521.663 68.5692 520.402C69.3518 519.141 70.4838 518.511 71.9651 518.511ZM68.8836 525.847C68.8836 527.537 69.0374 528.86 69.3448 529.816L73.9985 520.61C73.5093 519.958 72.8315 519.633 71.9651 519.633C71.0008 519.633 70.2462 520.145 69.7012 521.171C69.1561 522.182 68.8836 523.741 68.8836 525.847ZM71.9651 532.061C72.9433 532.061 73.705 531.555 74.25 530.543C74.795 529.518 75.0675 527.953 75.0675 525.847C75.0675 524.059 74.8928 522.674 74.5435 521.69L69.8898 530.98C70.3929 531.7 71.0847 532.061 71.9651 532.061Z" fill="url(#paint21_linear_175_198)" fill-opacity="0.6"/>
<path d="M73.2228 555.645H76.3043V556.747H68.3176V555.645H71.8812V543.966L68.4853 545.982L67.8984 545.046L72.0909 542.469H73.2228V555.645Z" fill="url(#paint22_linear_175_198)" fill-opacity="0.6"/>
<path d="M71.9651 566.013C73.4604 566.013 74.5924 566.643 75.361 567.904C76.1436 569.151 76.5349 570.966 76.5349 573.349C76.5349 575.732 76.1436 577.554 75.361 578.815C74.5924 580.075 73.4604 580.706 71.9651 580.706C70.4838 580.706 69.3518 580.075 68.5692 578.815C67.7866 577.554 67.3953 575.732 67.3953 573.349C67.3953 570.98 67.7866 569.165 68.5692 567.904C69.3518 566.643 70.4838 566.013 71.9651 566.013ZM68.8836 573.349C68.8836 575.039 69.0374 576.362 69.3448 577.318L73.9985 568.112C73.5093 567.461 72.8315 567.135 71.9651 567.135C71.0008 567.135 70.2462 567.648 69.7012 568.673C69.1561 569.684 68.8836 571.243 68.8836 573.349ZM71.9651 579.563C72.9433 579.563 73.705 579.057 74.25 578.046C74.795 577.02 75.0675 575.455 75.0675 573.349C75.0675 571.562 74.8928 570.176 74.5435 569.192L69.8898 578.482C70.3929 579.202 71.0847 579.563 71.9651 579.563Z" fill="url(#paint23_linear_175_198)" fill-opacity="0.6"/>
<path d="M73.2228 603.148H76.3043V604.249H68.3176V603.148H71.8812V591.468L68.4853 593.484L67.8984 592.549L72.0909 589.972H73.2228V603.148Z" fill="url(#paint24_linear_175_198)" fill-opacity="0.6"/>
<path d="M73.2228 626.899H76.3043V628H68.3176V626.899H71.8812V615.219L68.4853 617.235L67.8984 616.3L72.0909 613.723H73.2228V626.899Z" fill="url(#paint25_linear_175_198)" fill-opacity="0.6"/>
<path d="M13.5698 352.253C15.0651 352.253 16.1971 352.884 16.9657 354.144C17.7483 355.391 18.1396 357.206 18.1396 359.589C18.1396 361.972 17.7483 363.794 16.9657 365.055C16.1971 366.316 15.0651 366.946 13.5698 366.946C12.0885 366.946 10.9565 366.316 10.1739 365.055C9.3913 363.794 9 361.972 9 359.589C9 357.22 9.3913 355.405 10.1739 354.144C10.9565 352.884 12.0885 352.253 13.5698 352.253ZM10.4883 359.589C10.4883 361.28 10.6421 362.603 10.9495 363.559L15.6032 354.352C15.114 353.701 14.4363 353.375 13.5698 353.375C12.6055 353.375 11.8509 353.888 11.3059 354.913C10.7608 355.925 10.4883 357.483 10.4883 359.589ZM13.5698 365.803C14.5481 365.803 15.3097 365.297 15.8547 364.286C16.3997 363.261 16.6722 361.695 16.6722 359.589C16.6722 357.802 16.4976 356.417 16.1482 355.433L11.4945 364.722C11.9976 365.443 12.6894 365.803 13.5698 365.803Z" fill="url(#paint26_linear_175_198)" fill-opacity="0.6"/>
<path d="M13.5698 376.004C15.0651 376.004 16.1971 376.635 16.9657 377.895C17.7483 379.142 18.1396 380.957 18.1396 383.34C18.1396 385.723 17.7483 387.545 16.9657 388.806C16.1971 390.067 15.0651 390.697 13.5698 390.697C12.0885 390.697 10.9565 390.067 10.1739 388.806C9.3913 387.545 9 385.723 9 383.34C9 380.971 9.3913 379.156 10.1739 377.895C10.9565 376.635 12.0885 376.004 13.5698 376.004ZM10.4883 383.34C10.4883 385.031 10.6421 386.354 10.9495 387.31L15.6032 378.103C15.114 377.452 14.4363 377.126 13.5698 377.126C12.6055 377.126 11.8509 377.639 11.3059 378.664C10.7608 379.676 10.4883 381.234 10.4883 383.34ZM13.5698 389.554C14.5481 389.554 15.3097 389.049 15.8547 388.037C16.3997 387.012 16.6722 385.446 16.6722 383.34C16.6722 381.553 16.4976 380.168 16.1482 379.184L11.4945 388.474C11.9976 389.194 12.6894 389.554 13.5698 389.554Z" fill="url(#paint27_linear_175_198)" fill-opacity="0.6"/>
<path d="M14.8276 413.139H17.909V414.24H9.92235V413.139H13.486V401.459L10.09 403.475L9.5031 402.54L13.6956 399.963H14.8276V413.139Z" fill="url(#paint28_linear_175_198)" fill-opacity="0.6"/>
<path d="M13.5698 423.506C15.0651 423.506 16.1971 424.137 16.9657 425.398C17.7483 426.644 18.1396 428.459 18.1396 430.842C18.1396 433.225 17.7483 435.047 16.9657 436.308C16.1971 437.569 15.0651 438.199 13.5698 438.199C12.0885 438.199 10.9565 437.569 10.1739 436.308C9.3913 435.047 9 433.225 9 430.842C9 428.473 9.3913 426.658 10.1739 425.398C10.9565 424.137 12.0885 423.506 13.5698 423.506ZM10.4883 430.842C10.4883 432.533 10.6421 433.856 10.9495 434.812L15.6032 425.605C15.114 424.954 14.4363 424.629 13.5698 424.629C12.6055 424.629 11.8509 425.141 11.3059 426.166C10.7608 427.178 10.4883 428.737 10.4883 430.842ZM13.5698 437.056C14.5481 437.056 15.3097 436.551 15.8547 435.539C16.3997 434.514 16.6722 432.948 16.6722 430.842C16.6722 429.055 16.4976 427.67 16.1482 426.686L11.4945 435.976C11.9976 436.696 12.6894 437.056 13.5698 437.056Z" fill="url(#paint29_linear_175_198)" fill-opacity="0.6"/>
<path d="M14.8276 460.641H17.909V461.743H9.92235V460.641H13.486V448.962L10.09 450.977L9.5031 450.042L13.6956 447.465H14.8276V460.641Z" fill="url(#paint30_linear_175_198)" fill-opacity="0.6"/>
<path d="M14.8276 484.392H17.909V485.494H9.92235V484.392H13.486V472.713L10.09 474.728L9.5031 473.793L13.6956 471.216H14.8276V484.392Z" fill="url(#paint31_linear_175_198)" fill-opacity="0.6"/>
<path d="M53.7577 318.135H56.8392V319.236H48.8525V318.135H52.4162V306.455L49.0202 308.471L48.4333 307.536L52.6258 304.959H53.7577V318.135Z" fill="url(#paint32_linear_175_198)" fill-opacity="0.6"/>
<path d="M52.5 328.502C53.9953 328.502 55.1273 329.133 55.8959 330.393C56.6785 331.64 57.0698 333.455 57.0698 335.838C57.0698 338.221 56.6785 340.043 55.8959 341.304C55.1273 342.565 53.9953 343.195 52.5 343.195C51.0187 343.195 49.8867 342.565 49.1041 341.304C48.3215 340.043 47.9302 338.221 47.9302 335.838C47.9302 333.469 48.3215 331.654 49.1041 330.393C49.8867 329.133 51.0187 328.502 52.5 328.502ZM49.4185 335.838C49.4185 337.529 49.5723 338.852 49.8797 339.808L54.5334 330.601C54.0442 329.95 53.3664 329.624 52.5 329.624C51.5357 329.624 50.7811 330.137 50.2361 331.162C49.691 332.174 49.4185 333.732 49.4185 335.838ZM52.5 342.052C53.4782 342.052 54.2399 341.546 54.7849 340.535C55.3299 339.51 55.6024 337.944 55.6024 335.838C55.6024 334.051 55.4277 332.665 55.0784 331.682L50.4247 340.971C50.9278 341.692 51.6196 342.052 52.5 342.052Z" fill="url(#paint33_linear_175_198)" fill-opacity="0.6"/>
<path d="M53.7577 365.637H56.8392V366.738H48.8525V365.637H52.4162V353.957L49.0202 355.973L48.4333 355.038L52.6258 352.461H53.7577V365.637Z" fill="url(#paint34_linear_175_198)" fill-opacity="0.6"/>
<path d="M53.7577 389.388H56.8392V390.489H48.8525V389.388H52.4162V377.708L49.0202 379.724L48.4333 378.789L52.6258 376.212H53.7577V389.388Z" fill="url(#paint35_linear_175_198)" fill-opacity="0.6"/>
<path d="M52.5 399.755C53.9953 399.755 55.1273 400.386 55.8959 401.646C56.6785 402.893 57.0698 404.708 57.0698 407.091C57.0698 409.474 56.6785 411.296 55.8959 412.557C55.1273 413.818 53.9953 414.448 52.5 414.448C51.0187 414.448 49.8867 413.818 49.1041 412.557C48.3215 411.296 47.9302 409.474 47.9302 407.091C47.9302 404.722 48.3215 402.907 49.1041 401.646C49.8867 400.386 51.0187 399.755 52.5 399.755ZM49.4185 407.091C49.4185 408.782 49.5723 410.105 49.8797 411.061L54.5334 401.854C54.0442 401.203 53.3664 400.878 52.5 400.878C51.5357 400.878 50.7811 401.39 50.2361 402.415C49.691 403.427 49.4185 404.985 49.4185 407.091ZM52.5 413.305C53.4782 413.305 54.2399 412.8 54.7849 411.788C55.3299 410.763 55.6024 409.197 55.6024 407.091C55.6024 405.304 55.4277 403.919 55.0784 402.935L50.4247 412.225C50.9278 412.945 51.6196 413.305 52.5 413.305Z" fill="url(#paint36_linear_175_198)" fill-opacity="0.6"/>
<path d="M53.7577 436.89H56.8392V437.992H48.8525V436.89H52.4162V425.21L49.0202 427.226L48.4333 426.291L52.6258 423.714H53.7577V436.89Z" fill="url(#paint37_linear_175_198)" fill-opacity="0.6"/>
<path d="M53.7577 460.641H56.8392V461.743H48.8525V460.641H52.4162V448.962L49.0202 450.977L48.4333 450.042L52.6258 447.465H53.7577V460.641Z" fill="url(#paint38_linear_175_198)" fill-opacity="0.6"/>
<path d="M52.5 471.008C53.9953 471.008 55.1273 471.639 55.8959 472.9C56.6785 474.147 57.0698 475.962 57.0698 478.345C57.0698 480.728 56.6785 482.549 55.8959 483.81C55.1273 485.071 53.9953 485.701 52.5 485.701C51.0187 485.701 49.8867 485.071 49.1041 483.81C48.3215 482.549 47.9302 480.728 47.9302 478.345C47.9302 475.975 48.3215 474.16 49.1041 472.9C49.8867 471.639 51.0187 471.008 52.5 471.008ZM49.4185 478.345C49.4185 480.035 49.5723 481.358 49.8797 482.314L54.5334 473.107C54.0442 472.456 53.3664 472.131 52.5 472.131C51.5357 472.131 50.7811 472.643 50.2361 473.669C49.691 474.68 49.4185 476.239 49.4185 478.345ZM52.5 484.558C53.4782 484.558 54.2399 484.053 54.7849 483.041C55.3299 482.016 55.6024 480.451 55.6024 478.345C55.6024 476.557 55.4277 475.172 55.0784 474.188L50.4247 483.478C50.9278 484.198 51.6196 484.558 52.5 484.558Z" fill="url(#paint39_linear_175_198)" fill-opacity="0.6"/>
<path d="M53.7577 508.143H56.8392V509.245H48.8525V508.143H52.4162V496.464L49.0202 498.48L48.4333 497.544L52.6258 494.967H53.7577V508.143Z" fill="url(#paint40_linear_175_198)" fill-opacity="0.6"/>
<path d="M52.5 518.511C53.9953 518.511 55.1273 519.141 55.8959 520.402C56.6785 521.649 57.0698 523.464 57.0698 525.847C57.0698 528.23 56.6785 530.052 55.8959 531.312C55.1273 532.573 53.9953 533.204 52.5 533.204C51.0187 533.204 49.8867 532.573 49.1041 531.312C48.3215 530.052 47.9302 528.23 47.9302 525.847C47.9302 523.478 48.3215 521.663 49.1041 520.402C49.8867 519.141 51.0187 518.511 52.5 518.511ZM49.4185 525.847C49.4185 527.537 49.5723 528.86 49.8797 529.816L54.5334 520.61C54.0442 519.958 53.3664 519.633 52.5 519.633C51.5357 519.633 50.7811 520.145 50.2361 521.171C49.691 522.182 49.4185 523.741 49.4185 525.847ZM52.5 532.061C53.4782 532.061 54.2399 531.555 54.7849 530.543C55.3299 529.518 55.6024 527.953 55.6024 525.847C55.6024 524.059 55.4277 522.674 55.0784 521.69L50.4247 530.98C50.9278 531.7 51.6196 532.061 52.5 532.061Z" fill="url(#paint41_linear_175_198)" fill-opacity="0.6"/>
<path d="M91.4302 304.751C92.9255 304.751 94.0575 305.381 94.8261 306.642C95.6087 307.889 96 309.704 96 312.087C96 314.47 95.6087 316.292 94.8261 317.553C94.0575 318.814 92.9255 319.444 91.4302 319.444C89.9489 319.444 88.8169 318.814 88.0343 317.553C87.2517 316.292 86.8604 314.47 86.8604 312.087C86.8604 309.718 87.2517 307.903 88.0343 306.642C88.8169 305.381 89.9489 304.751 91.4302 304.751ZM88.3487 312.087C88.3487 313.777 88.5024 315.101 88.8099 316.057L93.4636 306.85C92.9744 306.199 92.2966 305.873 91.4302 305.873C90.4659 305.873 89.7113 306.386 89.1663 307.411C88.6212 308.423 88.3487 309.981 88.3487 312.087ZM91.4302 318.301C92.4084 318.301 93.1701 317.795 93.7151 316.784C94.2601 315.759 94.5326 314.193 94.5326 312.087C94.5326 310.3 94.3579 308.914 94.0086 307.931L89.3549 317.22C89.858 317.941 90.5498 318.301 91.4302 318.301Z" fill="url(#paint42_linear_175_198)" fill-opacity="0.6"/>
<path d="M92.6879 341.886H95.7694V342.987H87.7827V341.886H91.3463V330.206L87.9504 332.222L87.3635 331.287L91.556 328.71H92.6879V341.886Z" fill="url(#paint43_linear_175_198)" fill-opacity="0.6"/>
<path d="M92.6879 365.637H95.7694V366.738H87.7827V365.637H91.3463V353.957L87.9504 355.973L87.3635 355.038L91.556 352.461H92.6879V365.637Z" fill="url(#paint44_linear_175_198)" fill-opacity="0.6"/>
<path d="M91.4302 376.004C92.9255 376.004 94.0575 376.635 94.8261 377.895C95.6087 379.142 96 380.957 96 383.34C96 385.723 95.6087 387.545 94.8261 388.806C94.0575 390.067 92.9255 390.697 91.4302 390.697C89.9489 390.697 88.8169 390.067 88.0343 388.806C87.2517 387.545 86.8604 385.723 86.8604 383.34C86.8604 380.971 87.2517 379.156 88.0343 377.895C88.8169 376.635 89.9489 376.004 91.4302 376.004ZM88.3487 383.34C88.3487 385.031 88.5024 386.354 88.8099 387.31L93.4636 378.103C92.9744 377.452 92.2966 377.126 91.4302 377.126C90.4659 377.126 89.7113 377.639 89.1663 378.664C88.6212 379.676 88.3487 381.234 88.3487 383.34ZM91.4302 389.554C92.4084 389.554 93.1701 389.049 93.7151 388.037C94.2601 387.012 94.5326 385.446 94.5326 383.34C94.5326 381.553 94.3579 380.168 94.0086 379.184L89.3549 388.474C89.858 389.194 90.5498 389.554 91.4302 389.554Z" fill="url(#paint45_linear_175_198)" fill-opacity="0.6"/>
<path d="M91.4302 399.755C92.9255 399.755 94.0575 400.386 94.8261 401.646C95.6087 402.893 96 404.708 96 407.091C96 409.474 95.6087 411.296 94.8261 412.557C94.0575 413.818 92.9255 414.448 91.4302 414.448C89.9489 414.448 88.8169 413.818 88.0343 412.557C87.2517 411.296 86.8604 409.474 86.8604 407.091C86.8604 404.722 87.2517 402.907 88.0343 401.646C88.8169 400.386 89.9489 399.755 91.4302 399.755ZM88.3487 407.091C88.3487 408.782 88.5024 410.105 88.8099 411.061L93.4636 401.854C92.9744 401.203 92.2966 400.878 91.4302 400.878C90.4659 400.878 89.7113 401.39 89.1663 402.415C88.6212 403.427 88.3487 404.985 88.3487 407.091ZM91.4302 413.305C92.4084 413.305 93.1701 412.8 93.7151 411.788C94.2601 410.763 94.5326 409.197 94.5326 407.091C94.5326 405.304 94.3579 403.919 94.0086 402.935L89.3549 412.225C89.858 412.945 90.5498 413.305 91.4302 413.305Z" fill="url(#paint46_linear_175_198)" fill-opacity="0.6"/>
<g opacity="0.6">
<path d="M919.93 -19C921.356 -19 922.436 -18.395 923.17 -17.1851C923.916 -15.9885 924.29 -14.2468 924.29 -11.9599C924.29 -9.67299 923.916 -7.9246 923.17 -6.71468C922.436 -5.50476 921.356 -4.8998 919.93 -4.8998C918.517 -4.8998 917.437 -5.50476 916.69 -6.71468C915.943 -7.9246 915.57 -9.67299 915.57 -11.9599C915.57 -14.2335 915.943 -15.9752 916.69 -17.1851C917.437 -18.395 918.517 -19 919.93 -19ZM916.99 -11.9599C916.99 -10.3378 917.137 -9.06804 917.43 -8.15063L921.87 -16.9857C921.403 -17.6106 920.756 -17.923 919.93 -17.923C919.01 -17.923 918.29 -17.4311 917.77 -16.4472C917.25 -15.4766 916.99 -13.9808 916.99 -11.9599ZM919.93 -5.99671C920.863 -5.99671 921.59 -6.482 922.11 -7.4526C922.63 -8.43649 922.89 -9.93891 922.89 -11.9599C922.89 -13.675 922.723 -15.0046 922.39 -15.9486L917.95 -7.03378C918.43 -6.3424 919.09 -5.99671 919.93 -5.99671Z" fill="url(#paint47_linear_175_198)"/>
<path d="M921.13 16.6365H924.07V17.6936H916.45V16.6365H919.85V5.42819L916.61 7.36273L916.05 6.46526L920.05 3.99224H921.13V16.6365Z" fill="url(#paint48_linear_175_198)"/>
<path d="M919.93 26.5856C921.356 26.5856 922.436 27.1906 923.17 28.4005C923.916 29.5971 924.29 31.3389 924.29 33.6257C924.29 35.9126 923.916 37.661 923.17 38.8709C922.436 40.0808 921.356 40.6858 919.93 40.6858C918.517 40.6858 917.437 40.0808 916.69 38.8709C915.943 37.661 915.57 35.9126 915.57 33.6257C915.57 31.3522 915.943 29.6104 916.69 28.4005C917.437 27.1906 918.517 26.5856 919.93 26.5856ZM916.99 33.6257C916.99 35.2478 917.137 36.5176 917.43 37.435L921.87 28.5999C921.403 27.975 920.756 27.6626 919.93 27.6626C919.01 27.6626 918.29 28.1545 917.77 29.1384C917.25 30.109 916.99 31.6048 916.99 33.6257ZM919.93 39.5889C920.863 39.5889 921.59 39.1036 922.11 38.133C922.63 37.1491 922.89 35.6467 922.89 33.6257C922.89 31.9106 922.723 30.581 922.39 29.637L917.95 38.5518C918.43 39.2432 919.09 39.5889 919.93 39.5889Z" fill="url(#paint49_linear_175_198)"/>
<path d="M921.13 62.2221H924.07V63.2792H916.45V62.2221H919.85V51.0138L916.61 52.9483L916.05 52.0509L920.05 49.5778H921.13V62.2221Z" fill="url(#paint50_linear_175_198)"/>
<path d="M921.13 85.015H924.07V86.072H916.45V85.015H919.85V73.8066L916.61 75.7411L916.05 74.8437L920.05 72.3706H921.13V85.015Z" fill="url(#paint51_linear_175_198)"/>
<path d="M919.93 94.964C921.356 94.964 922.436 95.569 923.17 96.7789C923.916 97.9755 924.29 99.7173 924.29 102.004C924.29 104.291 923.916 106.039 923.17 107.249C922.436 108.459 921.356 109.064 919.93 109.064C918.517 109.064 917.437 108.459 916.69 107.249C915.943 106.039 915.57 104.291 915.57 102.004C915.57 99.7306 915.943 97.9888 916.69 96.7789C917.437 95.569 918.517 94.964 919.93 94.964ZM916.99 102.004C916.99 103.626 917.137 104.896 917.43 105.813L921.87 96.9783C921.403 96.3534 920.756 96.041 919.93 96.041C919.01 96.041 918.29 96.5329 917.77 97.5168C917.25 98.4874 916.99 99.9832 916.99 102.004ZM919.93 107.967C920.863 107.967 921.59 107.482 922.11 106.511C922.63 105.528 922.89 104.025 922.89 102.004C922.89 100.289 922.723 98.9594 922.39 98.0154L917.95 106.93C918.43 107.622 919.09 107.967 919.93 107.967Z" fill="url(#paint52_linear_175_198)"/>
<path d="M921.13 130.601H924.07V131.658H916.45V130.601H919.85V119.392L916.61 121.327L916.05 120.429L920.05 117.956H921.13V130.601Z" fill="url(#paint53_linear_175_198)"/>
<path d="M919.93 140.55C921.356 140.55 922.436 141.155 923.17 142.365C923.916 143.561 924.29 145.303 924.29 147.59C924.29 149.877 923.916 151.625 923.17 152.835C922.436 154.045 921.356 154.65 919.93 154.65C918.517 154.65 917.437 154.045 916.69 152.835C915.943 151.625 915.57 149.877 915.57 147.59C915.57 145.316 915.943 143.574 916.69 142.365C917.437 141.155 918.517 140.55 919.93 140.55ZM916.99 147.59C916.99 149.212 917.137 150.482 917.43 151.399L921.87 142.564C921.403 141.939 920.756 141.627 919.93 141.627C919.01 141.627 918.29 142.119 917.77 143.102C917.25 144.073 916.99 145.569 916.99 147.59ZM919.93 153.553C920.863 153.553 921.59 153.068 922.11 152.097C922.63 151.113 922.89 149.611 922.89 147.59C922.89 145.875 922.723 144.545 922.39 143.601L917.95 152.516C918.43 153.207 919.09 153.553 919.93 153.553Z" fill="url(#paint54_linear_175_198)"/>
<path d="M919.93 163.342C921.356 163.342 922.436 163.947 923.17 165.157C923.916 166.354 924.29 168.096 924.29 170.383C924.29 172.669 923.916 174.418 923.17 175.628C922.436 176.838 921.356 177.443 919.93 177.443C918.517 177.443 917.437 176.838 916.69 175.628C915.943 174.418 915.57 172.669 915.57 170.383C915.57 168.109 915.943 166.367 916.69 165.157C917.437 163.947 918.517 163.342 919.93 163.342ZM916.99 170.383C916.99 172.005 917.137 173.274 917.43 174.192L921.87 165.357C921.403 164.732 920.756 164.419 919.93 164.419C919.01 164.419 918.29 164.911 917.77 165.895C917.25 166.866 916.99 168.362 916.99 170.383ZM919.93 176.346C920.863 176.346 921.59 175.86 922.11 174.89C922.63 173.906 922.89 172.404 922.89 170.383C922.89 168.667 922.723 167.338 922.39 166.394L917.95 175.309C918.43 176 919.09 176.346 919.93 176.346Z" fill="url(#paint55_linear_175_198)"/>
<path d="M921.13 198.979H924.07V200.036H916.45V198.979H919.85V187.771L916.61 189.705L916.05 188.808L920.05 186.335H921.13V198.979Z" fill="url(#paint56_linear_175_198)"/>
<path d="M919.93 208.928C921.356 208.928 922.436 209.533 923.17 210.743C923.916 211.94 924.29 213.681 924.29 215.968C924.29 218.255 923.916 220.003 923.17 221.213C922.436 222.423 921.356 223.028 919.93 223.028C918.517 223.028 917.437 222.423 916.69 221.213C915.943 220.003 915.57 218.255 915.57 215.968C915.57 213.695 915.943 211.953 916.69 210.743C917.437 209.533 918.517 208.928 919.93 208.928ZM916.99 215.968C916.99 217.59 917.137 218.86 917.43 219.777L921.87 210.942C921.403 210.317 920.756 210.005 919.93 210.005C919.01 210.005 918.29 210.497 917.77 211.481C917.25 212.451 916.99 213.947 916.99 215.968ZM919.93 221.931C920.863 221.931 921.59 221.446 922.11 220.475C922.63 219.492 922.89 217.989 922.89 215.968C922.89 214.253 922.723 212.923 922.39 211.979L917.95 220.894C918.43 221.586 919.09 221.931 919.93 221.931Z" fill="url(#paint57_linear_175_198)"/>
<path d="M921.13 244.565H924.07V245.622H916.45V244.565H919.85V233.356L916.61 235.291L916.05 234.393L920.05 231.92H921.13V244.565Z" fill="url(#paint58_linear_175_198)"/>
<path d="M921.13 267.357H924.07V268.414H916.45V267.357H919.85V256.149L916.61 258.084L916.05 257.186L920.05 254.713H921.13V267.357Z" fill="url(#paint59_linear_175_198)"/>
<path d="M957.07 26.5856C958.497 26.5856 959.577 27.1906 960.31 28.4005C961.057 29.5971 961.43 31.3389 961.43 33.6257C961.43 35.9126 961.057 37.661 960.31 38.8709C959.577 40.0808 958.497 40.6858 957.07 40.6858C955.657 40.6858 954.577 40.0808 953.83 38.8709C953.084 37.661 952.71 35.9126 952.71 33.6257C952.71 31.3522 953.084 29.6104 953.83 28.4005C954.577 27.1906 955.657 26.5856 957.07 26.5856ZM954.13 33.6257C954.13 35.2478 954.277 36.5176 954.57 37.435L959.01 28.5999C958.543 27.975 957.897 27.6626 957.07 27.6626C956.15 27.6626 955.43 28.1545 954.91 29.1384C954.39 30.109 954.13 31.6048 954.13 33.6257ZM957.07 39.5889C958.003 39.5889 958.73 39.1036 959.25 38.133C959.77 37.1491 960.03 35.6467 960.03 33.6257C960.03 31.9106 959.863 30.581 959.53 29.637L955.09 38.5518C955.57 39.2432 956.23 39.5889 957.07 39.5889Z" fill="url(#paint60_linear_175_198)"/>
<path d="M958.27 62.2221H961.21V63.2792H953.59V62.2221H956.99V51.0138L953.75 52.9483L953.19 52.0509L957.19 49.5778H958.27V62.2221Z" fill="url(#paint61_linear_175_198)"/>
<path d="M957.07 72.1712C958.497 72.1712 959.577 72.7762 960.31 73.9861C961.057 75.1827 961.43 76.9245 961.43 79.2113C961.43 81.4982 961.057 83.2466 960.31 84.4565C959.577 85.6664 958.497 86.2714 957.07 86.2714C955.657 86.2714 954.577 85.6664 953.83 84.4565C953.084 83.2466 952.71 81.4982 952.71 79.2113C952.71 76.9378 953.084 75.196 953.83 73.9861C954.577 72.7762 955.657 72.1712 957.07 72.1712ZM954.13 79.2113C954.13 80.8334 954.277 82.1032 954.57 83.0206L959.01 74.1855C958.543 73.5606 957.897 73.2482 957.07 73.2482C956.15 73.2482 955.43 73.7401 954.91 74.724C954.39 75.6946 954.13 77.1904 954.13 79.2113ZM957.07 85.1745C958.003 85.1745 958.73 84.6892 959.25 83.7186C959.77 82.7347 960.03 81.2323 960.03 79.2113C960.03 77.4962 959.863 76.1666 959.53 75.2226L955.09 84.1374C955.57 84.8288 956.23 85.1745 957.07 85.1745Z" fill="url(#paint62_linear_175_198)"/>
<path d="M957.07 94.964C958.497 94.964 959.577 95.569 960.31 96.7789C961.057 97.9755 961.43 99.7173 961.43 102.004C961.43 104.291 961.057 106.039 960.31 107.249C959.577 108.459 958.497 109.064 957.07 109.064C955.657 109.064 954.577 108.459 953.83 107.249C953.084 106.039 952.71 104.291 952.71 102.004C952.71 99.7306 953.084 97.9888 953.83 96.7789C954.577 95.569 955.657 94.964 957.07 94.964ZM954.13 102.004C954.13 103.626 954.277 104.896 954.57 105.813L959.01 96.9783C958.543 96.3534 957.897 96.041 957.07 96.041C956.15 96.041 955.43 96.5329 954.91 97.5168C954.39 98.4874 954.13 99.9832 954.13 102.004ZM957.07 107.967C958.003 107.967 958.73 107.482 959.25 106.511C959.77 105.528 960.03 104.025 960.03 102.004C960.03 100.289 959.863 98.9594 959.53 98.0154L955.09 106.93C955.57 107.622 956.23 107.967 957.07 107.967Z" fill="url(#paint63_linear_175_198)"/>
<path d="M958.27 130.601H961.21V131.658H953.59V130.601H956.99V119.392L953.75 121.327L953.19 120.429L957.19 117.956H958.27V130.601Z" fill="url(#paint64_linear_175_198)"/>
<path d="M957.07 140.55C958.497 140.55 959.577 141.155 960.31 142.365C961.057 143.561 961.43 145.303 961.43 147.59C961.43 149.877 961.057 151.625 960.31 152.835C959.577 154.045 958.497 154.65 957.07 154.65C955.657 154.65 954.577 154.045 953.83 152.835C953.084 151.625 952.71 149.877 952.71 147.59C952.71 145.316 953.084 143.574 953.83 142.365C954.577 141.155 955.657 140.55 957.07 140.55ZM954.13 147.59C954.13 149.212 954.277 150.482 954.57 151.399L959.01 142.564C958.543 141.939 957.897 141.627 957.07 141.627C956.15 141.627 955.43 142.119 954.91 143.102C954.39 144.073 954.13 145.569 954.13 147.59ZM957.07 153.553C958.003 153.553 958.73 153.068 959.25 152.097C959.77 151.113 960.03 149.611 960.03 147.59C960.03 145.875 959.863 144.545 959.53 143.601L955.09 152.516C955.57 153.207 956.23 153.553 957.07 153.553Z" fill="url(#paint65_linear_175_198)"/>
<path d="M958.27 176.186H961.21V177.243H953.59V176.186H956.99V164.978L953.75 166.912L953.19 166.015L957.19 163.542H958.27V176.186Z" fill="url(#paint66_linear_175_198)"/>
<path d="M957.07 186.135C958.497 186.135 959.577 186.74 960.31 187.95C961.057 189.147 961.43 190.888 961.43 193.175C961.43 195.462 961.057 197.211 960.31 198.421C959.577 199.63 958.497 200.235 957.07 200.235C955.657 200.235 954.577 199.63 953.83 198.421C953.084 197.211 952.71 195.462 952.71 193.175C952.71 190.902 953.084 189.16 953.83 187.95C954.577 186.74 955.657 186.135 957.07 186.135ZM954.13 193.175C954.13 194.797 954.277 196.067 954.57 196.985L959.01 188.15C958.543 187.525 957.897 187.212 957.07 187.212C956.15 187.212 955.43 187.704 954.91 188.688C954.39 189.659 954.13 191.154 954.13 193.175ZM957.07 199.139C958.003 199.139 958.73 198.653 959.25 197.683C959.77 196.699 960.03 195.196 960.03 193.175C960.03 191.46 959.863 190.131 959.53 189.187L955.09 198.101C955.57 198.793 956.23 199.139 957.07 199.139Z" fill="url(#paint67_linear_175_198)"/>
<path d="M957.07 208.928C958.497 208.928 959.577 209.533 960.31 210.743C961.057 211.94 961.43 213.681 961.43 215.968C961.43 218.255 961.057 220.003 960.31 221.213C959.577 222.423 958.497 223.028 957.07 223.028C955.657 223.028 954.577 222.423 953.83 221.213C953.084 220.003 952.71 218.255 952.71 215.968C952.71 213.695 953.084 211.953 953.83 210.743C954.577 209.533 955.657 208.928 957.07 208.928ZM954.13 215.968C954.13 217.59 954.277 218.86 954.57 219.777L959.01 210.942C958.543 210.317 957.897 210.005 957.07 210.005C956.15 210.005 955.43 210.497 954.91 211.481C954.39 212.451 954.13 213.947 954.13 215.968ZM957.07 221.931C958.003 221.931 958.73 221.446 959.25 220.475C959.77 219.492 960.03 217.989 960.03 215.968C960.03 214.253 959.863 212.923 959.53 211.979L955.09 220.894C955.57 221.586 956.23 221.931 957.07 221.931Z" fill="url(#paint68_linear_175_198)"/>
<path d="M958.27 244.565H961.21V245.622H953.59V244.565H956.99V233.356L953.75 235.291L953.19 234.393L957.19 231.92H958.27V244.565Z" fill="url(#paint69_linear_175_198)"/>
<path d="M957.07 254.514C958.497 254.514 959.577 255.119 960.31 256.329C961.057 257.525 961.43 259.267 961.43 261.554C961.43 263.841 961.057 265.589 960.31 266.799C959.577 268.009 958.497 268.614 957.07 268.614C955.657 268.614 954.577 268.009 953.83 266.799C953.084 265.589 952.71 263.841 952.71 261.554C952.71 259.28 953.084 257.538 953.83 256.329C954.577 255.119 955.657 254.514 957.07 254.514ZM954.13 261.554C954.13 263.176 954.277 264.446 954.57 265.363L959.01 256.528C958.543 255.903 957.897 255.591 957.07 255.591C956.15 255.591 955.43 256.083 954.91 257.066C954.39 258.037 954.13 259.533 954.13 261.554ZM957.07 267.517C958.003 267.517 958.73 267.032 959.25 266.061C959.77 265.077 960.03 263.575 960.03 261.554C960.03 259.839 959.863 258.509 959.53 257.565L955.09 266.48C955.57 267.171 956.23 267.517 957.07 267.517Z" fill="url(#paint70_linear_175_198)"/>
<path d="M958.27 290.15H961.21V291.207H953.59V290.15H956.99V278.942L953.75 280.876L953.19 279.979L957.19 277.506H958.27V290.15Z" fill="url(#paint71_linear_175_198)"/>
<path d="M958.27 312.943H961.21V314H953.59V312.943H956.99V301.735L953.75 303.669L953.19 302.772L957.19 300.299H958.27V312.943Z" fill="url(#paint72_linear_175_198)"/>
<path d="M901.36 49.3784C902.786 49.3784 903.866 49.9834 904.599 51.1933C905.346 52.3899 905.719 54.1317 905.719 56.4185C905.719 58.7054 905.346 60.4538 904.599 61.6637C903.866 62.8736 902.786 63.4786 901.36 63.4786C899.946 63.4786 898.867 62.8736 898.12 61.6637C897.373 60.4538 897 58.7054 897 56.4185C897 54.145 897.373 52.4032 898.12 51.1933C898.867 49.9834 899.946 49.3784 901.36 49.3784ZM898.42 56.4185C898.42 58.0406 898.567 59.3104 898.86 60.2278L903.3 51.3927C902.833 50.7678 902.186 50.4554 901.36 50.4554C900.44 50.4554 899.72 50.9473 899.2 51.9312C898.68 52.9018 898.42 54.3976 898.42 56.4185ZM901.36 62.3817C902.293 62.3817 903.02 61.8964 903.54 60.9258C904.06 59.9419 904.319 58.4395 904.319 56.4185C904.319 54.7034 904.153 53.3738 903.82 52.4298L899.38 61.3446C899.86 62.036 900.52 62.3817 901.36 62.3817Z" fill="url(#paint73_linear_175_198)"/>
<path d="M901.36 72.1712C902.786 72.1712 903.866 72.7762 904.599 73.9861C905.346 75.1827 905.719 76.9245 905.719 79.2113C905.719 81.4982 905.346 83.2466 904.599 84.4565C903.866 85.6664 902.786 86.2714 901.36 86.2714C899.946 86.2714 898.867 85.6664 898.12 84.4565C897.373 83.2466 897 81.4982 897 79.2113C897 76.9378 897.373 75.196 898.12 73.9861C898.867 72.7762 899.946 72.1712 901.36 72.1712ZM898.42 79.2113C898.42 80.8334 898.567 82.1032 898.86 83.0206L903.3 74.1855C902.833 73.5606 902.186 73.2482 901.36 73.2482C900.44 73.2482 899.72 73.7401 899.2 74.724C898.68 75.6946 898.42 77.1904 898.42 79.2113ZM901.36 85.1745C902.293 85.1745 903.02 84.6892 903.54 83.7186C904.06 82.7347 904.319 81.2323 904.319 79.2113C904.319 77.4962 904.153 76.1666 903.82 75.2226L899.38 84.1374C899.86 84.8288 900.52 85.1745 901.36 85.1745Z" fill="url(#paint74_linear_175_198)"/>
<path d="M902.56 107.808H905.499V108.865H897.88V107.808H901.28V96.5994L898.04 98.5339L897.48 97.6365L901.48 95.1635H902.56V107.808Z" fill="url(#paint75_linear_175_198)"/>
<path d="M901.36 117.757C902.786 117.757 903.866 118.362 904.599 119.572C905.346 120.768 905.719 122.51 905.719 124.797C905.719 127.084 905.346 128.832 904.599 130.042C903.866 131.252 902.786 131.857 901.36 131.857C899.946 131.857 898.867 131.252 898.12 130.042C897.373 128.832 897 127.084 897 124.797C897 122.523 897.373 120.782 898.12 119.572C898.867 118.362 899.946 117.757 901.36 117.757ZM898.42 124.797C898.42 126.419 898.567 127.689 898.86 128.606L903.3 119.771C902.833 119.146 902.186 118.834 901.36 118.834C900.44 118.834 899.72 119.326 899.2 120.31C898.68 121.28 898.42 122.776 898.42 124.797ZM901.36 130.76C902.293 130.76 903.02 130.275 903.54 129.304C904.06 128.32 904.319 126.818 904.319 124.797C904.319 123.082 904.153 121.752 903.82 120.808L899.38 129.723C899.86 130.414 900.52 130.76 901.36 130.76Z" fill="url(#paint76_linear_175_198)"/>
<path d="M902.56 153.393H905.499V154.45H897.88V153.393H901.28V142.185L898.04 144.12L897.48 143.222L901.48 140.749H902.56V153.393Z" fill="url(#paint77_linear_175_198)"/>
<path d="M902.56 176.186H905.499V177.243H897.88V176.186H901.28V164.978L898.04 166.912L897.48 166.015L901.48 163.542H902.56V176.186Z" fill="url(#paint78_linear_175_198)"/>
<path d="M939.7 16.6365H942.64V17.6936H935.02V16.6365H938.42V5.42819L935.18 7.36273L934.62 6.46526L938.62 3.99224H939.7V16.6365Z" fill="url(#paint79_linear_175_198)"/>
<path d="M938.5 26.5856C939.927 26.5856 941.006 27.1906 941.74 28.4005C942.486 29.5971 942.86 31.3389 942.86 33.6257C942.86 35.9126 942.486 37.661 941.74 38.8709C941.006 40.0808 939.927 40.6858 938.5 40.6858C937.087 40.6858 936.007 40.0808 935.26 38.8709C934.514 37.661 934.14 35.9126 934.14 33.6257C934.14 31.3522 934.514 29.6104 935.26 28.4005C936.007 27.1906 937.087 26.5856 938.5 26.5856ZM935.56 33.6257C935.56 35.2478 935.707 36.5176 936 37.435L940.44 28.5999C939.973 27.975 939.327 27.6626 938.5 27.6626C937.58 27.6626 936.86 28.1545 936.34 29.1384C935.82 30.109 935.56 31.6048 935.56 33.6257ZM938.5 39.5889C939.433 39.5889 940.16 39.1036 940.68 38.133C941.2 37.1491 941.46 35.6467 941.46 33.6257C941.46 31.9106 941.293 30.581 940.96 29.637L936.52 38.5518C937 39.2432 937.66 39.5889 938.5 39.5889Z" fill="url(#paint80_linear_175_198)"/>
<path d="M939.7 62.2221H942.64V63.2792H935.02V62.2221H938.42V51.0138L935.18 52.9483L934.62 52.0509L938.62 49.5778H939.7V62.2221Z" fill="url(#paint81_linear_175_198)"/>
<path d="M939.7 85.015H942.64V86.072H935.02V85.015H938.42V73.8066L935.18 75.7411L934.62 74.8437L938.62 72.3706H939.7V85.015Z" fill="url(#paint82_linear_175_198)"/>
<path d="M938.5 94.964C939.927 94.964 941.006 95.569 941.74 96.7789C942.486 97.9755 942.86 99.7173 942.86 102.004C942.86 104.291 942.486 106.039 941.74 107.249C941.006 108.459 939.927 109.064 938.5 109.064C937.087 109.064 936.007 108.459 935.26 107.249C934.514 106.039 934.14 104.291 934.14 102.004C934.14 99.7306 934.514 97.9888 935.26 96.7789C936.007 95.569 937.087 94.964 938.5 94.964ZM935.56 102.004C935.56 103.626 935.707 104.896 936 105.813L940.44 96.9783C939.973 96.3534 939.327 96.041 938.5 96.041C937.58 96.041 936.86 96.5329 936.34 97.5168C935.82 98.4874 935.56 99.9832 935.56 102.004ZM938.5 107.967C939.433 107.967 940.16 107.482 940.68 106.511C941.2 105.528 941.46 104.025 941.46 102.004C941.46 100.289 941.293 98.9594 940.96 98.0154L936.52 106.93C937 107.622 937.66 107.967 938.5 107.967Z" fill="url(#paint83_linear_175_198)"/>
<path d="M939.7 130.601H942.64V131.658H935.02V130.601H938.42V119.392L935.18 121.327L934.62 120.429L938.62 117.956H939.7V130.601Z" fill="url(#paint84_linear_175_198)"/>
<path d="M939.7 153.393H942.64V154.45H935.02V153.393H938.42V142.185L935.18 144.12L934.62 143.222L938.62 140.749H939.7V153.393Z" fill="url(#paint85_linear_175_198)"/>
<path d="M938.5 163.342C939.927 163.342 941.006 163.947 941.74 165.157C942.486 166.354 942.86 168.096 942.86 170.383C942.86 172.669 942.486 174.418 941.74 175.628C941.006 176.838 939.927 177.443 938.5 177.443C937.087 177.443 936.007 176.838 935.26 175.628C934.514 174.418 934.14 172.669 934.14 170.383C934.14 168.109 934.514 166.367 935.26 165.157C936.007 163.947 937.087 163.342 938.5 163.342ZM935.56 170.383C935.56 172.005 935.707 173.274 936 174.192L940.44 165.357C939.973 164.732 939.327 164.419 938.5 164.419C937.58 164.419 936.86 164.911 936.34 165.895C935.82 166.866 935.56 168.362 935.56 170.383ZM938.5 176.346C939.433 176.346 940.16 175.86 940.68 174.89C941.2 173.906 941.46 172.404 941.46 170.383C941.46 168.667 941.293 167.338 940.96 166.394L936.52 175.309C937 176 937.66 176.346 938.5 176.346Z" fill="url(#paint86_linear_175_198)"/>
<path d="M939.7 198.979H942.64V200.036H935.02V198.979H938.42V187.771L935.18 189.705L934.62 188.808L938.62 186.335H939.7V198.979Z" fill="url(#paint87_linear_175_198)"/>
<path d="M938.5 208.928C939.927 208.928 941.006 209.533 941.74 210.743C942.486 211.94 942.86 213.681 942.86 215.968C942.86 218.255 942.486 220.003 941.74 221.213C941.006 222.423 939.927 223.028 938.5 223.028C937.087 223.028 936.007 222.423 935.26 221.213C934.514 220.003 934.14 218.255 934.14 215.968C934.14 213.695 934.514 211.953 935.26 210.743C936.007 209.533 937.087 208.928 938.5 208.928ZM935.56 215.968C935.56 217.59 935.707 218.86 936 219.777L940.44 210.942C939.973 210.317 939.327 210.005 938.5 210.005C937.58 210.005 936.86 210.497 936.34 211.481C935.82 212.451 935.56 213.947 935.56 215.968ZM938.5 221.931C939.433 221.931 940.16 221.446 940.68 220.475C941.2 219.492 941.46 217.989 941.46 215.968C941.46 214.253 941.293 212.923 940.96 211.979L936.52 220.894C937 221.586 937.66 221.931 938.5 221.931Z" fill="url(#paint88_linear_175_198)"/>
<path d="M975.64 3.7928C977.067 3.7928 978.147 4.39776 978.88 5.60768C979.627 6.8043 980 8.54605 980 10.8329C980 13.1198 979.627 14.8682 978.88 16.0781C978.147 17.288 977.067 17.893 975.64 17.893C974.227 17.893 973.147 17.288 972.401 16.0781C971.654 14.8682 971.281 13.1198 971.281 10.8329C971.281 8.55935 971.654 6.8176 972.401 5.60768C973.147 4.39776 974.227 3.7928 975.64 3.7928ZM972.7 10.8329C972.7 12.455 972.847 13.7248 973.14 14.6422L977.58 5.80712C977.114 5.18221 976.467 4.86976 975.64 4.86976C974.72 4.86976 974 5.36171 973.48 6.3456C972.96 7.31619 972.7 8.81197 972.7 10.8329ZM975.64 16.7961C976.574 16.7961 977.3 16.3108 977.82 15.3402C978.34 14.3563 978.6 12.8539 978.6 10.8329C978.6 9.11777 978.433 7.78819 978.1 6.84419L973.66 15.759C974.14 16.4504 974.8 16.7961 975.64 16.7961Z" fill="url(#paint89_linear_175_198)"/>
<path d="M976.84 39.4293H979.78V40.4864H972.161V39.4293H975.56V28.221L972.321 30.1555L971.761 29.2581L975.76 26.785H976.84V39.4293Z" fill="url(#paint90_linear_175_198)"/>
<path d="M976.84 62.2221H979.78V63.2792H972.161V62.2221H975.56V51.0138L972.321 52.9483L971.761 52.0509L975.76 49.5778H976.84V62.2221Z" fill="url(#paint91_linear_175_198)"/>
<path d="M975.64 72.1712C977.067 72.1712 978.147 72.7762 978.88 73.9861C979.627 75.1827 980 76.9245 980 79.2113C980 81.4982 979.627 83.2466 978.88 84.4565C978.147 85.6664 977.067 86.2714 975.64 86.2714C974.227 86.2714 973.147 85.6664 972.401 84.4565C971.654 83.2466 971.281 81.4982 971.281 79.2113C971.281 76.9378 971.654 75.196 972.401 73.9861C973.147 72.7762 974.227 72.1712 975.64 72.1712ZM972.7 79.2113C972.7 80.8334 972.847 82.1032 973.14 83.0206L977.58 74.1855C977.114 73.5606 976.467 73.2482 975.64 73.2482C974.72 73.2482 974 73.7401 973.48 74.724C972.96 75.6946 972.7 77.1904 972.7 79.2113ZM975.64 85.1745C976.574 85.1745 977.3 84.6892 977.82 83.7186C978.34 82.7347 978.6 81.2323 978.6 79.2113C978.6 77.4962 978.433 76.1666 978.1 75.2226L973.66 84.1374C974.14 84.8288 974.8 85.1745 975.64 85.1745Z" fill="url(#paint92_linear_175_198)"/>
<path d="M975.64 94.964C977.067 94.964 978.147 95.569 978.88 96.7789C979.627 97.9755 980 99.7173 980 102.004C980 104.291 979.627 106.039 978.88 107.249C978.147 108.459 977.067 109.064 975.64 109.064C974.227 109.064 973.147 108.459 972.401 107.249C971.654 106.039 971.281 104.291 971.281 102.004C971.281 99.7306 971.654 97.9888 972.401 96.7789C973.147 95.569 974.227 94.964 975.64 94.964ZM972.7 102.004C972.7 103.626 972.847 104.896 973.14 105.813L977.58 96.9783C977.114 96.3534 976.467 96.041 975.64 96.041C974.72 96.041 974 96.5329 973.48 97.5168C972.96 98.4874 972.7 99.9832 972.7 102.004ZM975.64 107.967C976.574 107.967 977.3 107.482 977.82 106.511C978.34 105.528 978.6 104.025 978.6 102.004C978.6 100.289 978.433 98.9594 978.1 98.0154L973.66 106.93C974.14 107.622 974.8 107.967 975.64 107.967Z" fill="url(#paint93_linear_175_198)"/>
</g>
<defs>
<filter id="filter0_f_175_198" x="-558.19" y="-705.19" width="2141.38" height="1500.38" filterUnits="userSpaceOnUse" color-interpolation-filters="sRGB">
<feFlood flood-opacity="0" result="BackgroundImageFix"/>
<feBlend mode="normal" in="SourceGraphic" in2="BackgroundImageFix" result="shape"/>
<feGaussianBlur stdDeviation="200.095" result="effect1_foregroundBlur_175_198"/>
</filter>
<linearGradient id="paint0_linear_175_198" x1="52.5" y1="281" x2="52.5" y2="592.381" gradientUnits="userSpaceOnUse">
<stop stop-color="#F7DD43"/>
<stop offset="1" stop-color="#F7DD43" stop-opacity="0"/>
</linearGradient>
<linearGradient id="paint1_linear_175_198" x1="52.5" y1="281" x2="52.5" y2="592.381" gradientUnits="userSpaceOnUse">
<stop stop-color="#F7DD43"/>
<stop offset="1" stop-color="#F7DD43" stop-opacity="0"/>
</linearGradient>
<linearGradient id="paint2_linear_175_198" x1="52.5" y1="281" x2="52.5" y2="592.381" gradientUnits="userSpaceOnUse">
<stop stop-color="#F7DD43"/>
<stop offset="1" stop-color="#F7DD43" stop-opacity="0"/>
</linearGradient>
<linearGradient id="paint3_linear_175_198" x1="52.5" y1="281" x2="52.5" y2="592.381" gradientUnits="userSpaceOnUse">
<stop stop-color="#F7DD43"/>
<stop offset="1" stop-color="#F7DD43" stop-opacity="0"/>
</linearGradient>
<linearGradient id="paint4_linear_175_198" x1="52.5" y1="281" x2="52.5" y2="592.381" gradientUnits="userSpaceOnUse">
<stop stop-color="#F7DD43"/>
<stop offset="1" stop-color="#F7DD43" stop-opacity="0"/>
</linearGradient>
<linearGradient id="paint5_linear_175_198" x1="52.5" y1="281" x2="52.5" y2="592.381" gradientUnits="userSpaceOnUse">
<stop stop-color="#F7DD43"/>
<stop offset="1" stop-color="#F7DD43" stop-opacity="0"/>
</linearGradient>
<linearGradient id="paint6_linear_175_198" x1="52.5" y1="281" x2="52.5" y2="592.381" gradientUnits="userSpaceOnUse">
<stop stop-color="#F7DD43"/>
<stop offset="1" stop-color="#F7DD43" stop-opacity="0"/>
</linearGradient>
<linearGradient id="paint7_linear_175_198" x1="52.5" y1="281" x2="52.5" y2="592.381" gradientUnits="userSpaceOnUse">
<stop stop-color="#F7DD43"/>
<stop offset="1" stop-color="#F7DD43" stop-opacity="0"/>
</linearGradient>
<linearGradient id="paint8_linear_175_198" x1="52.5" y1="281" x2="52.5" y2="592.381" gradientUnits="userSpaceOnUse">
<stop stop-color="#F7DD43"/>
<stop offset="1" stop-color="#F7DD43" stop-opacity="0"/>
</linearGradient>
<linearGradient id="paint9_linear_175_198" x1="52.5" y1="281" x2="52.5" y2="592.381" gradientUnits="userSpaceOnUse">
<stop stop-color="#F7DD43"/>
<stop offset="1" stop-color="#F7DD43" stop-opacity="0"/>
</linearGradient>
<linearGradient id="paint10_linear_175_198" x1="52.5" y1="281" x2="52.5" y2="592.381" gradientUnits="userSpaceOnUse">
<stop stop-color="#F7DD43"/>
<stop offset="1" stop-color="#F7DD43" stop-opacity="0"/>
</linearGradient>
<linearGradient id="paint11_linear_175_198" x1="52.5" y1="281" x2="52.5" y2="592.381" gradientUnits="userSpaceOnUse">
<stop stop-color="#F7DD43"/>
<stop offset="1" stop-color="#F7DD43" stop-opacity="0"/>
</linearGradient>
<linearGradient id="paint12_linear_175_198" x1="52.5" y1="281" x2="52.5" y2="592.381" gradientUnits="userSpaceOnUse">
<stop stop-color="#F7DD43"/>
<stop offset="1" stop-color="#F7DD43" stop-opacity="0"/>
</linearGradient>
<linearGradient id="paint13_linear_175_198" x1="52.5" y1="281" x2="52.5" y2="592.381" gradientUnits="userSpaceOnUse">
<stop stop-color="#F7DD43"/>
<stop offset="1" stop-color="#F7DD43" stop-opacity="0"/>
</linearGradient>
<linearGradient id="paint14_linear_175_198" x1="52.5" y1="281" x2="52.5" y2="592.381" gradientUnits="userSpaceOnUse">
<stop stop-color="#F7DD43"/>
<stop offset="1" stop-color="#F7DD43" stop-opacity="0"/>
</linearGradient>
<linearGradient id="paint15_linear_175_198" x1="52.5" y1="281" x2="52.5" y2="592.381" gradientUnits="userSpaceOnUse">
<stop stop-color="#F7DD43"/>
<stop offset="1" stop-color="#F7DD43" stop-opacity="0"/>
</linearGradient>
<linearGradient id="paint16_linear_175_198" x1="52.5" y1="281" x2="52.5" y2="592.381" gradientUnits="userSpaceOnUse">
<stop stop-color="#F7DD43"/>
<stop offset="1" stop-color="#F7DD43" stop-opacity="0"/>
</linearGradient>
<linearGradient id="paint17_linear_175_198" x1="52.5" y1="281" x2="52.5" y2="592.381" gradientUnits="userSpaceOnUse">
<stop stop-color="#F7DD43"/>
<stop offset="1" stop-color="#F7DD43" stop-opacity="0"/>
</linearGradient>
<linearGradient id="paint18_linear_175_198" x1="52.5" y1="281" x2="52.5" y2="592.381" gradientUnits="userSpaceOnUse">
<stop stop-color="#F7DD43"/>
<stop offset="1" stop-color="#F7DD43" stop-opacity="0"/>
</linearGradient>
<linearGradient id="paint19_linear_175_198" x1="52.5" y1="281" x2="52.5" y2="592.381" gradientUnits="userSpaceOnUse">
<stop stop-color="#F7DD43"/>
<stop offset="1" stop-color="#F7DD43" stop-opacity="0"/>
</linearGradient>
<linearGradient id="paint20_linear_175_198" x1="52.5" y1="281" x2="52.5" y2="592.381" gradientUnits="userSpaceOnUse">
<stop stop-color="#F7DD43"/>
<stop offset="1" stop-color="#F7DD43" stop-opacity="0"/>
</linearGradient>
<linearGradient id="paint21_linear_175_198" x1="52.5" y1="281" x2="52.5" y2="592.381" gradientUnits="userSpaceOnUse">
<stop stop-color="#F7DD43"/>
<stop offset="1" stop-color="#F7DD43" stop-opacity="0"/>
</linearGradient>
<linearGradient id="paint22_linear_175_198" x1="52.5" y1="281" x2="52.5" y2="592.381" gradientUnits="userSpaceOnUse">
<stop stop-color="#F7DD43"/>
<stop offset="1" stop-color="#F7DD43" stop-opacity="0"/>
</linearGradient>
<linearGradient id="paint23_linear_175_198" x1="52.5" y1="281" x2="52.5" y2="592.381" gradientUnits="userSpaceOnUse">
<stop stop-color="#F7DD43"/>
<stop offset="1" stop-color="#F7DD43" stop-opacity="0"/>
</linearGradient>
<linearGradient id="paint24_linear_175_198" x1="52.5" y1="281" x2="52.5" y2="592.381" gradientUnits="userSpaceOnUse">
<stop stop-color="#F7DD43"/>
<stop offset="1" stop-color="#F7DD43" stop-opacity="0"/>
</linearGradient>
<linearGradient id="paint25_linear_175_198" x1="52.5" y1="281" x2="52.5" y2="592.381" gradientUnits="userSpaceOnUse">
<stop stop-color="#F7DD43"/>
<stop offset="1" stop-color="#F7DD43" stop-opacity="0"/>
</linearGradient>
<linearGradient id="paint26_linear_175_198" x1="52.5" y1="281" x2="52.5" y2="592.381" gradientUnits="userSpaceOnUse">
<stop stop-color="#F7DD43"/>
<stop offset="1" stop-color="#F7DD43" stop-opacity="0"/>
</linearGradient>
<linearGradient id="paint27_linear_175_198" x1="52.5" y1="281" x2="52.5" y2="592.381" gradientUnits="userSpaceOnUse">
<stop stop-color="#F7DD43"/>
<stop offset="1" stop-color="#F7DD43" stop-opacity="0"/>
</linearGradient>
<linearGradient id="paint28_linear_175_198" x1="52.5" y1="281" x2="52.5" y2="592.381" gradientUnits="userSpaceOnUse">
<stop stop-color="#F7DD43"/>
<stop offset="1" stop-color="#F7DD43" stop-opacity="0"/>
</linearGradient>
<linearGradient id="paint29_linear_175_198" x1="52.5" y1="281" x2="52.5" y2="592.381" gradientUnits="userSpaceOnUse">
<stop stop-color="#F7DD43"/>
<stop offset="1" stop-color="#F7DD43" stop-opacity="0"/>
</linearGradient>
<linearGradient id="paint30_linear_175_198" x1="52.5" y1="281" x2="52.5" y2="592.381" gradientUnits="userSpaceOnUse">
<stop stop-color="#F7DD43"/>
<stop offset="1" stop-color="#F7DD43" stop-opacity="0"/>
</linearGradient>
<linearGradient id="paint31_linear_175_198" x1="52.5" y1="281" x2="52.5" y2="592.381" gradientUnits="userSpaceOnUse">
<stop stop-color="#F7DD43"/>
<stop offset="1" stop-color="#F7DD43" stop-opacity="0"/>
</linearGradient>
<linearGradient id="paint32_linear_175_198" x1="52.5" y1="281" x2="52.5" y2="592.381" gradientUnits="userSpaceOnUse">
<stop stop-color="#F7DD43"/>
<stop offset="1" stop-color="#F7DD43" stop-opacity="0"/>
</linearGradient>
<linearGradient id="paint33_linear_175_198" x1="52.5" y1="281" x2="52.5" y2="592.381" gradientUnits="userSpaceOnUse">
<stop stop-color="#F7DD43"/>
<stop offset="1" stop-color="#F7DD43" stop-opacity="0"/>
</linearGradient>
<linearGradient id="paint34_linear_175_198" x1="52.5" y1="281" x2="52.5" y2="592.381" gradientUnits="userSpaceOnUse">
<stop stop-color="#F7DD43"/>
<stop offset="1" stop-color="#F7DD43" stop-opacity="0"/>
</linearGradient>
<linearGradient id="paint35_linear_175_198" x1="52.5" y1="281" x2="52.5" y2="592.381" gradientUnits="userSpaceOnUse">
<stop stop-color="#F7DD43"/>
<stop offset="1" stop-color="#F7DD43" stop-opacity="0"/>
</linearGradient>
<linearGradient id="paint36_linear_175_198" x1="52.5" y1="281" x2="52.5" y2="592.381" gradientUnits="userSpaceOnUse">
<stop stop-color="#F7DD43"/>
<stop offset="1" stop-color="#F7DD43" stop-opacity="0"/>
</linearGradient>
<linearGradient id="paint37_linear_175_198" x1="52.5" y1="281" x2="52.5" y2="592.381" gradientUnits="userSpaceOnUse">
<stop stop-color="#F7DD43"/>
<stop offset="1" stop-color="#F7DD43" stop-opacity="0"/>
</linearGradient>
<linearGradient id="paint38_linear_175_198" x1="52.5" y1="281" x2="52.5" y2="592.381" gradientUnits="userSpaceOnUse">
<stop stop-color="#F7DD43"/>
<stop offset="1" stop-color="#F7DD43" stop-opacity="0"/>
</linearGradient>
<linearGradient id="paint39_linear_175_198" x1="52.5" y1="281" x2="52.5" y2="592.381" gradientUnits="userSpaceOnUse">
<stop stop-color="#F7DD43"/>
<stop offset="1" stop-color="#F7DD43" stop-opacity="0"/>
</linearGradient>
<linearGradient id="paint40_linear_175_198" x1="52.5" y1="281" x2="52.5" y2="592.381" gradientUnits="userSpaceOnUse">
<stop stop-color="#F7DD43"/>
<stop offset="1" stop-color="#F7DD43" stop-opacity="0"/>
</linearGradient>
<linearGradient id="paint41_linear_175_198" x1="52.5" y1="281" x2="52.5" y2="592.381" gradientUnits="userSpaceOnUse">
<stop stop-color="#F7DD43"/>
<stop offset="1" stop-color="#F7DD43" stop-opacity="0"/>
</linearGradient>
<linearGradient id="paint42_linear_175_198" x1="52.5" y1="281" x2="52.5" y2="592.381" gradientUnits="userSpaceOnUse">
<stop stop-color="#F7DD43"/>
<stop offset="1" stop-color="#F7DD43" stop-opacity="0"/>
</linearGradient>
<linearGradient id="paint43_linear_175_198" x1="52.5" y1="281" x2="52.5" y2="592.381" gradientUnits="userSpaceOnUse">
<stop stop-color="#F7DD43"/>
<stop offset="1" stop-color="#F7DD43" stop-opacity="0"/>
</linearGradient>
<linearGradient id="paint44_linear_175_198" x1="52.5" y1="281" x2="52.5" y2="592.381" gradientUnits="userSpaceOnUse">
<stop stop-color="#F7DD43"/>
<stop offset="1" stop-color="#F7DD43" stop-opacity="0"/>
</linearGradient>
<linearGradient id="paint45_linear_175_198" x1="52.5" y1="281" x2="52.5" y2="592.381" gradientUnits="userSpaceOnUse">
<stop stop-color="#F7DD43"/>
<stop offset="1" stop-color="#F7DD43" stop-opacity="0"/>
</linearGradient>
<linearGradient id="paint46_linear_175_198" x1="52.5" y1="281" x2="52.5" y2="592.381" gradientUnits="userSpaceOnUse">
<stop stop-color="#F7DD43"/>
<stop offset="1" stop-color="#F7DD43" stop-opacity="0"/>
</linearGradient>
<linearGradient id="paint47_linear_175_198" x1="938.5" y1="-19" x2="938.5" y2="279.818" gradientUnits="userSpaceOnUse">
<stop stop-color="#F7DD43"/>
<stop offset="1" stop-color="#F7DD43" stop-opacity="0"/>
</linearGradient>
<linearGradient id="paint48_linear_175_198" x1="938.5" y1="-19" x2="938.5" y2="279.818" gradientUnits="userSpaceOnUse">
<stop stop-color="#F7DD43"/>
<stop offset="1" stop-color="#F7DD43" stop-opacity="0"/>
</linearGradient>
<linearGradient id="paint49_linear_175_198" x1="938.5" y1="-19" x2="938.5" y2="279.818" gradientUnits="userSpaceOnUse">
<stop stop-color="#F7DD43"/>
<stop offset="1" stop-color="#F7DD43" stop-opacity="0"/>
</linearGradient>
<linearGradient id="paint50_linear_175_198" x1="938.5" y1="-19" x2="938.5" y2="279.818" gradientUnits="userSpaceOnUse">
<stop stop-color="#F7DD43"/>
<stop offset="1" stop-color="#F7DD43" stop-opacity="0"/>
</linearGradient>
<linearGradient id="paint51_linear_175_198" x1="938.5" y1="-19" x2="938.5" y2="279.818" gradientUnits="userSpaceOnUse">
<stop stop-color="#F7DD43"/>
<stop offset="1" stop-color="#F7DD43" stop-opacity="0"/>
</linearGradient>
<linearGradient id="paint52_linear_175_198" x1="938.5" y1="-19" x2="938.5" y2="279.818" gradientUnits="userSpaceOnUse">
<stop stop-color="#F7DD43"/>
<stop offset="1" stop-color="#F7DD43" stop-opacity="0"/>
</linearGradient>
<linearGradient id="paint53_linear_175_198" x1="938.5" y1="-19" x2="938.5" y2="279.818" gradientUnits="userSpaceOnUse">
<stop stop-color="#F7DD43"/>
<stop offset="1" stop-color="#F7DD43" stop-opacity="0"/>
</linearGradient>
<linearGradient id="paint54_linear_175_198" x1="938.5" y1="-19" x2="938.5" y2="279.818" gradientUnits="userSpaceOnUse">
<stop stop-color="#F7DD43"/>
<stop offset="1" stop-color="#F7DD43" stop-opacity="0"/>
</linearGradient>
<linearGradient id="paint55_linear_175_198" x1="938.5" y1="-19" x2="938.5" y2="279.818" gradientUnits="userSpaceOnUse">
<stop stop-color="#F7DD43"/>
<stop offset="1" stop-color="#F7DD43" stop-opacity="0"/>
</linearGradient>
<linearGradient id="paint56_linear_175_198" x1="938.5" y1="-19" x2="938.5" y2="279.818" gradientUnits="userSpaceOnUse">
<stop stop-color="#F7DD43"/>
<stop offset="1" stop-color="#F7DD43" stop-opacity="0"/>
</linearGradient>
<linearGradient id="paint57_linear_175_198" x1="938.5" y1="-19" x2="938.5" y2="279.818" gradientUnits="userSpaceOnUse">
<stop stop-color="#F7DD43"/>
<stop offset="1" stop-color="#F7DD43" stop-opacity="0"/>
</linearGradient>
<linearGradient id="paint58_linear_175_198" x1="938.5" y1="-19" x2="938.5" y2="279.818" gradientUnits="userSpaceOnUse">
<stop stop-color="#F7DD43"/>
<stop offset="1" stop-color="#F7DD43" stop-opacity="0"/>
</linearGradient>
<linearGradient id="paint59_linear_175_198" x1="938.5" y1="-19" x2="938.5" y2="279.818" gradientUnits="userSpaceOnUse">
<stop stop-color="#F7DD43"/>
<stop offset="1" stop-color="#F7DD43" stop-opacity="0"/>
</linearGradient>
<linearGradient id="paint60_linear_175_198" x1="938.5" y1="-19" x2="938.5" y2="279.818" gradientUnits="userSpaceOnUse">
<stop stop-color="#F7DD43"/>
<stop offset="1" stop-color="#F7DD43" stop-opacity="0"/>
</linearGradient>
<linearGradient id="paint61_linear_175_198" x1="938.5" y1="-19" x2="938.5" y2="279.818" gradientUnits="userSpaceOnUse">
<stop stop-color="#F7DD43"/>
<stop offset="1" stop-color="#F7DD43" stop-opacity="0"/>
</linearGradient>
<linearGradient id="paint62_linear_175_198" x1="938.5" y1="-19" x2="938.5" y2="279.818" gradientUnits="userSpaceOnUse">
<stop stop-color="#F7DD43"/>
<stop offset="1" stop-color="#F7DD43" stop-opacity="0"/>
</linearGradient>
<linearGradient id="paint63_linear_175_198" x1="938.5" y1="-19" x2="938.5" y2="279.818" gradientUnits="userSpaceOnUse">
<stop stop-color="#F7DD43"/>
<stop offset="1" stop-color="#F7DD43" stop-opacity="0"/>
</linearGradient>
<linearGradient id="paint64_linear_175_198" x1="938.5" y1="-19" x2="938.5" y2="279.818" gradientUnits="userSpaceOnUse">
<stop stop-color="#F7DD43"/>
<stop offset="1" stop-color="#F7DD43" stop-opacity="0"/>
</linearGradient>
<linearGradient id="paint65_linear_175_198" x1="938.5" y1="-19" x2="938.5" y2="279.818" gradientUnits="userSpaceOnUse">
<stop stop-color="#F7DD43"/>
<stop offset="1" stop-color="#F7DD43" stop-opacity="0"/>
</linearGradient>
<linearGradient id="paint66_linear_175_198" x1="938.5" y1="-19" x2="938.5" y2="279.818" gradientUnits="userSpaceOnUse">
<stop stop-color="#F7DD43"/>
<stop offset="1" stop-color="#F7DD43" stop-opacity="0"/>
</linearGradient>
<linearGradient id="paint67_linear_175_198" x1="938.5" y1="-19" x2="938.5" y2="279.818" gradientUnits="userSpaceOnUse">
<stop stop-color="#F7DD43"/>
<stop offset="1" stop-color="#F7DD43" stop-opacity="0"/>
</linearGradient>
<linearGradient id="paint68_linear_175_198" x1="938.5" y1="-19" x2="938.5" y2="279.818" gradientUnits="userSpaceOnUse">
<stop stop-color="#F7DD43"/>
<stop offset="1" stop-color="#F7DD43" stop-opacity="0"/>
</linearGradient>
<linearGradient id="paint69_linear_175_198" x1="938.5" y1="-19" x2="938.5" y2="279.818" gradientUnits="userSpaceOnUse">
<stop stop-color="#F7DD43"/>
<stop offset="1" stop-color="#F7DD43" stop-opacity="0"/>
</linearGradient>
<linearGradient id="paint70_linear_175_198" x1="938.5" y1="-19" x2="938.5" y2="279.818" gradientUnits="userSpaceOnUse">
<stop stop-color="#F7DD43"/>
<stop offset="1" stop-color="#F7DD43" stop-opacity="0"/>
</linearGradient>
<linearGradient id="paint71_linear_175_198" x1="938.5" y1="-19" x2="938.5" y2="279.818" gradientUnits="userSpaceOnUse">
<stop stop-color="#F7DD43"/>
<stop offset="1" stop-color="#F7DD43" stop-opacity="0"/>
</linearGradient>
<linearGradient id="paint72_linear_175_198" x1="938.5" y1="-19" x2="938.5" y2="279.818" gradientUnits="userSpaceOnUse">
<stop stop-color="#F7DD43"/>
<stop offset="1" stop-color="#F7DD43" stop-opacity="0"/>
</linearGradient>
<linearGradient id="paint73_linear_175_198" x1="938.5" y1="-19" x2="938.5" y2="279.818" gradientUnits="userSpaceOnUse">
<stop stop-color="#F7DD43"/>
<stop offset="1" stop-color="#F7DD43" stop-opacity="0"/>
</linearGradient>
<linearGradient id="paint74_linear_175_198" x1="938.5" y1="-19" x2="938.5" y2="279.818" gradientUnits="userSpaceOnUse">
<stop stop-color="#F7DD43"/>
<stop offset="1" stop-color="#F7DD43" stop-opacity="0"/>
</linearGradient>
<linearGradient id="paint75_linear_175_198" x1="938.5" y1="-19" x2="938.5" y2="279.818" gradientUnits="userSpaceOnUse">
<stop stop-color="#F7DD43"/>
<stop offset="1" stop-color="#F7DD43" stop-opacity="0"/>
</linearGradient>
<linearGradient id="paint76_linear_175_198" x1="938.5" y1="-19" x2="938.5" y2="279.818" gradientUnits="userSpaceOnUse">
<stop stop-color="#F7DD43"/>
<stop offset="1" stop-color="#F7DD43" stop-opacity="0"/>
</linearGradient>
<linearGradient id="paint77_linear_175_198" x1="938.5" y1="-19" x2="938.5" y2="279.818" gradientUnits="userSpaceOnUse">
<stop stop-color="#F7DD43"/>
<stop offset="1" stop-color="#F7DD43" stop-opacity="0"/>
</linearGradient>
<linearGradient id="paint78_linear_175_198" x1="938.5" y1="-19" x2="938.5" y2="279.818" gradientUnits="userSpaceOnUse">
<stop stop-color="#F7DD43"/>
<stop offset="1" stop-color="#F7DD43" stop-opacity="0"/>
</linearGradient>
<linearGradient id="paint79_linear_175_198" x1="938.5" y1="-19" x2="938.5" y2="279.818" gradientUnits="userSpaceOnUse">
<stop stop-color="#F7DD43"/>
<stop offset="1" stop-color="#F7DD43" stop-opacity="0"/>
</linearGradient>
<linearGradient id="paint80_linear_175_198" x1="938.5" y1="-19" x2="938.5" y2="279.818" gradientUnits="userSpaceOnUse">
<stop stop-color="#F7DD43"/>
<stop offset="1" stop-color="#F7DD43" stop-opacity="0"/>
</linearGradient>
<linearGradient id="paint81_linear_175_198" x1="938.5" y1="-19" x2="938.5" y2="279.818" gradientUnits="userSpaceOnUse">
<stop stop-color="#F7DD43"/>
<stop offset="1" stop-color="#F7DD43" stop-opacity="0"/>
</linearGradient>
<linearGradient id="paint82_linear_175_198" x1="938.5" y1="-19" x2="938.5" y2="279.818" gradientUnits="userSpaceOnUse">
<stop stop-color="#F7DD43"/>
<stop offset="1" stop-color="#F7DD43" stop-opacity="0"/>
</linearGradient>
<linearGradient id="paint83_linear_175_198" x1="938.5" y1="-19" x2="938.5" y2="279.818" gradientUnits="userSpaceOnUse">
<stop stop-color="#F7DD43"/>
<stop offset="1" stop-color="#F7DD43" stop-opacity="0"/>
</linearGradient>
<linearGradient id="paint84_linear_175_198" x1="938.5" y1="-19" x2="938.5" y2="279.818" gradientUnits="userSpaceOnUse">
<stop stop-color="#F7DD43"/>
<stop offset="1" stop-color="#F7DD43" stop-opacity="0"/>
</linearGradient>
<linearGradient id="paint85_linear_175_198" x1="938.5" y1="-19" x2="938.5" y2="279.818" gradientUnits="userSpaceOnUse">
<stop stop-color="#F7DD43"/>
<stop offset="1" stop-color="#F7DD43" stop-opacity="0"/>
</linearGradient>
<linearGradient id="paint86_linear_175_198" x1="938.5" y1="-19" x2="938.5" y2="279.818" gradientUnits="userSpaceOnUse">
<stop stop-color="#F7DD43"/>
<stop offset="1" stop-color="#F7DD43" stop-opacity="0"/>
</linearGradient>
<linearGradient id="paint87_linear_175_198" x1="938.5" y1="-19" x2="938.5" y2="279.818" gradientUnits="userSpaceOnUse">
<stop stop-color="#F7DD43"/>
<stop offset="1" stop-color="#F7DD43" stop-opacity="0"/>
</linearGradient>
<linearGradient id="paint88_linear_175_198" x1="938.5" y1="-19" x2="938.5" y2="279.818" gradientUnits="userSpaceOnUse">
<stop stop-color="#F7DD43"/>
<stop offset="1" stop-color="#F7DD43" stop-opacity="0"/>
</linearGradient>
<linearGradient id="paint89_linear_175_198" x1="938.5" y1="-19" x2="938.5" y2="279.818" gradientUnits="userSpaceOnUse">
<stop stop-color="#F7DD43"/>
<stop offset="1" stop-color="#F7DD43" stop-opacity="0"/>
</linearGradient>
<linearGradient id="paint90_linear_175_198" x1="938.5" y1="-19" x2="938.5" y2="279.818" gradientUnits="userSpaceOnUse">
<stop stop-color="#F7DD43"/>
<stop offset="1" stop-color="#F7DD43" stop-opacity="0"/>
</linearGradient>
<linearGradient id="paint91_linear_175_198" x1="938.5" y1="-19" x2="938.5" y2="279.818" gradientUnits="userSpaceOnUse">
<stop stop-color="#F7DD43"/>
<stop offset="1" stop-color="#F7DD43" stop-opacity="0"/>
</linearGradient>
<linearGradient id="paint92_linear_175_198" x1="938.5" y1="-19" x2="938.5" y2="279.818" gradientUnits="userSpaceOnUse">
<stop stop-color="#F7DD43"/>
<stop offset="1" stop-color="#F7DD43" stop-opacity="0"/>
</linearGradient>
<linearGradient id="paint93_linear_175_198" x1="938.5" y1="-19" x2="938.5" y2="279.818" gradientUnits="userSpaceOnUse">
<stop stop-color="#F7DD43"/>
<stop offset="1" stop-color="#F7DD43" stop-opacity="0"/>
</linearGradient>
</defs>
</svg>
